HIERARCHY
ROOT Hips
{
	OFFSET 0.000000 0.000000 0.000000
	CHANNELS 6 Xposition Yposition Zposition Xrotation Yrotation Zrotation
	JOINT LeftUpLeg_virtual
	{
		OFFSET 0.000000 0.000000 0.000000
		CHANNELS 3 Xrotation Yrotation Zrotation
		JOINT LeftUpLeg
		{
			OFFSET 11.394100 -6.187798 -0.413800
			CHANNELS 3 Xrotation Yrotation Zrotation
			JOINT LeftLeg
			{
				OFFSET 0.430247 -32.302673 3.732800
				CHANNELS 3 Xrotation Yrotation Zrotation
				JOINT LeftFoot
				{
					OFFSET -0.430247 -48.264931 -6.423300
					CHANNELS 3 Xrotation Yrotation Zrotation
					JOINT LeftToeBase
					{
						OFFSET 4.230900 -16.068199 23.438400
						CHANNELS 3 Xrotation Yrotation Zrotation
						JOINT LeftToe_End
						{
							OFFSET 4.510700 0.695400 19.974600
							CHANNELS 3 Xrotation Yrotation Zrotation
							End Site
							{
								OFFSET 0 0 0
							}
						}
					}
				}
			}
		}
	}
	JOINT RightUpLeg_virtual
	{
		OFFSET 0.000000 0.000000 0.000000
		CHANNELS 3 Xrotation Yrotation Zrotation
		JOINT RightUpLeg
		{
			OFFSET -11.333700 -6.187798 -0.413800
			CHANNELS 3 Xrotation Yrotation Zrotation
			JOINT RightLeg
			{
				OFFSET -0.430392 -32.302628 3.733000
				CHANNELS 3 Xrotation Yrotation Zrotation
				JOINT RightFoot
				{
					OFFSET 0.430392 -48.264973 -6.423500
					CHANNELS 3 Xrotation Yrotation Zrotation
					JOINT RightToeBase
					{
						OFFSET -4.230900 -16.068199 23.438400
						CHANNELS 3 Xrotation Yrotation Zrotation
						JOINT RightToe_End
						{
							OFFSET -4.510700 0.695400 19.974600
							CHANNELS 3 Xrotation Yrotation Zrotation
							End Site
							{
								OFFSET 0 0 0
							}
						}
					}
				}
			}
		}
	}
	JOINT Spine_virtual
	{
		OFFSET 0.000000 0.000000 0.000000
		CHANNELS 3 Xrotation Yrotation Zrotation
		JOINT Spine
		{
			OFFSET -0.002400 12.777504 0.315300
			CHANNELS 3 Xrotation Yrotation Zrotation
			JOINT Spine1
			{
				OFFSET -0.002067 5.816869 0.032633
				CHANNELS 3 Xrotation Yrotation Zrotation
				JOINT Spine1_split
				{
					OFFSET -0.002067 5.816869 0.032633
					CHANNELS 3 Xrotation Yrotation Zrotation
					JOINT Spine2
					{
						OFFSET -0.002067 5.816869 0.032633
						CHANNELS 3 Xrotation Yrotation Zrotation
						JOINT Neck_virtual
						{
							OFFSET 0.000000 0.000000 0.000000
							CHANNELS 3 Xrotation Yrotation Zrotation
							JOINT Neck
							{
								OFFSET -0.003700 21.199493 -0.826900
								CHANNELS 3 Xrotation Yrotation Zrotation
								JOINT Head
								{
									OFFSET 0.000000 20.442200 4.834800
									CHANNELS 3 Xrotation Yrotation Zrotation
									JOINT HeadTop_End
									{
										OFFSET 0.000000 34.668396 4.968400
										CHANNELS 3 Xrotation Yrotation Zrotation
										End Site
										{
											OFFSET 0 0 0
										}
									}
								}
							}
						}
						JOINT LeftShoulder_virtual
						{
							OFFSET 0.000000 0.000000 0.000000
							CHANNELS 3 Xrotation Yrotation Zrotation
							JOINT LeftShoulder
							{
								OFFSET 3.288150 8.794197 -1.372250
								CHANNELS 3 Xrotation Yrotation Zrotation
								JOINT LeftShoulder_split
								{
									OFFSET 3.288150 8.794197 -1.372250
									CHANNELS 3 Xrotation Yrotation Zrotation
									JOINT LeftArm
									{
										OFFSET 11.953299 -2.279007 -0.146200
										CHANNELS 3 Xrotation Yrotation Zrotation
										JOINT LeftForeArm
										{
											OFFSET 18.448900 0.000000 0.000000
											CHANNELS 3 Xrotation Yrotation Zrotation
											JOINT LeftHand
											{
												OFFSET 29.527798 0.000000 0.000000
												CHANNELS 3 Xrotation Yrotation Zrotation
												End Site
												{
													OFFSET 0 0 0
												}
											}
										}
									}
								}
							}
						}
						JOINT RightShoulder_virtual
						{
							OFFSET 0.000000 0.000000 0.000000
							CHANNELS 3 Xrotation Yrotation Zrotation
							JOINT RightShoulder
							{
								OFFSET -3.249400 8.794197 -1.372250
								CHANNELS 3 Xrotation Yrotation Zrotation
								JOINT RightShoulder_split
								{
									OFFSET -3.249400 8.794197 -1.372250
									CHANNELS 3 Xrotation Yrotation Zrotation
									JOINT RightArm
									{
										OFFSET -11.953299 -2.279007 -0.146200
										CHANNELS 3 Xrotation Yrotation Zrotation
										JOINT RightForeArm
										{
											OFFSET -18.448900 0.000000 0.000000
											CHANNELS 3 Xrotation Yrotation Zrotation
											JOINT RightHand
											{
												OFFSET -29.527802 0.000000 0.000000
												CHANNELS 3 Xrotation Yrotation Zrotation
												End Site
												{
													OFFSET 0 0 0
												}
											}
										}
									}
								}
							}
						}
					}
				}
			}
		}
	}
}
MOTION
Frames: 9
Frame Time: 0.03333333
12.840928 23.248405 183.174072 0.000000 0.000000 0.000000 -69.665300 2.325020 2.419548 -61.744876 -26.453649 31.160563 91.212156 -21.268970 6.192412 18.337929 -6.101241 -36.522292 9.265292 -3.064322 2.461508 0.000000 0.000000 0.000000 -74.138500 7.960214 5.937036 -81.243563 14.927170 -19.210477 105.725830 11.281983 -4.477075 25.095329 -0.146970 15.953765 32.058412 -7.626492 -22.682812 0.000000 0.000000 0.000000 -76.125286 13.175089 8.814466 4.030767 -8.387702 0.438323 0.465811 0.429888 0.679671 0.161961 -0.015022 -0.072553 0.000000 0.000000 0.000000 -1.609506 3.264510 1.563977 -2.927525 2.255357 11.946667 -17.966288 -31.981510 -6.676690 0.000000 0.000000 0.000000 -4.972510 1.983305 0.200336 -2.801910 -20.035284 -2.344802 -3.687897 3.836837 -2.495909 66.777120 -15.009132 -39.217877 -2.254342 -31.866896 5.708510 0.000000 0.000000 0.000000 -2.904808 1.075492 1.313833 -0.286496 2.366926 12.877540 7.076243 3.753031 -6.232229 74.758804 33.305252 9.476824 -3.317535 15.569823 -2.819205 0.000000 0.000000 0.000000 
13.207047 22.693718 183.176727 0.000000 0.000000 0.000000 -69.603432 2.299276 2.196856 -62.654384 -26.994663 30.148370 91.179679 -20.120815 5.978366 18.354479 -6.548582 -34.859547 9.314793 -2.922874 2.805742 0.000000 0.000000 0.000000 -74.269298 8.045276 6.004724 -79.755818 13.706515 -20.513785 105.004296 11.198988 -4.727611 22.095075 0.592619 17.954865 32.322467 -8.254493 -24.386629 0.000000 0.000000 0.000000 -76.515905 12.791257 8.535108 4.081082 -8.301319 0.641954 0.704535 0.481065 0.655032 0.131085 0.027741 -0.071906 0.000000 0.000000 0.000000 -1.297717 3.349840 1.526606 -2.119478 2.103476 11.785240 -19.325202 -34.453906 -8.486648 0.000000 0.000000 0.000000 -4.689797 2.066885 0.218304 -2.672232 -19.583967 -2.960508 -2.778753 3.421328 -2.400247 65.284492 -14.933032 -38.360566 -0.920990 -31.021059 6.557512 0.000000 0.000000 0.000000 -2.567475 1.136772 1.270629 -0.244425 1.901467 13.471648 7.022062 3.239050 -6.288490 74.895244 33.388922 9.505692 -3.115890 15.990115 -2.811663 0.000000 0.000000 0.000000 
13.587262 22.176151 183.123093 0.000000 0.000000 0.000000 -69.707893 2.464658 2.056199 -63.687580 -27.322401 29.293766 91.472298 -18.984726 5.764296 18.412189 -6.977714 -33.092335 9.317186 -2.783016 3.129003 0.000000 0.000000 0.000000 -74.291920 8.381218 6.150536 -77.467930 11.925089 -21.821901 103.846599 11.097433 -5.215244 18.087485 1.124216 19.869121 31.711544 -8.489055 -26.369277 0.000000 0.000000 0.000000 -76.983984 12.543613 8.343600 4.225652 -8.177838 0.708430 1.011817 0.542563 0.654851 0.110361 0.029568 -0.072841 0.000000 0.000000 0.000000 -0.953768 3.433912 1.539051 -0.941397 2.080620 11.405595 -20.848471 -36.989409 -10.260538 0.000000 0.000000 0.000000 -4.400206 2.126155 0.220367 -2.519757 -19.010016 -3.727707 -2.101084 3.190412 -2.244093 64.078472 -14.443050 -37.259450 0.417693 -30.896825 7.312461 0.000000 0.000000 0.000000 -2.228611 1.202222 1.295431 -0.137088 1.390047 13.838033 6.892860 2.748285 -6.195320 74.166340 33.528248 10.164621 -3.064375 16.284894 -2.638379 0.000000 0.000000 0.000000 
13.921006 21.805317 183.025894 0.000000 0.000000 0.000000 -69.917757 2.815092 1.987168 -64.781414 -27.513211 28.509351 91.898583 -18.002371 5.600891 18.586461 -7.594040 -31.382376 9.232531 -2.668179 3.426235 0.000000 0.000000 0.000000 -74.249245 9.010944 6.365284 -74.805810 9.681384 -23.048548 102.307559 10.988369 -5.787608 14.119469 1.459067 21.710637 30.402391 -8.393656 -28.288528 0.000000 0.000000 0.000000 -77.403768 12.429431 8.147824 4.416668 -8.039266 0.680051 1.413410 0.623895 0.687696 0.106431 0.009068 -0.067897 0.000000 0.000000 0.000000 -0.572454 3.518977 1.603052 0.511945 2.150941 10.953135 -22.590412 -39.424077 -11.948985 0.000000 0.000000 0.000000 -4.080396 2.182374 0.212761 -2.324387 -18.197422 -4.579704 -1.483212 2.754531 -2.030978 63.239704 -13.595573 -35.809654 1.764048 -31.343953 8.002148 0.000000 0.000000 0.000000 -1.854016 1.280047 1.381324 -0.010110 1.002216 14.043335 6.628493 2.481420 -5.990782 72.699133 33.726805 11.211201 -3.150219 16.500876 -2.302422 0.000000 0.000000 0.000000 
14.182042 21.629105 182.792786 0.000000 0.000000 0.000000 -70.165522 3.244432 1.849918 -65.975222 -27.589625 27.664629 92.228768 -17.217541 5.521557 18.865969 -8.443846 -29.758017 9.138388 -2.581172 3.676702 0.000000 0.000000 0.000000 -74.333850 9.783852 6.512480 -72.108486 7.132163 -24.230984 100.477219 10.999130 -6.381076 10.984158 1.767789 23.472514 29.087358 -8.150093 -29.657812 0.000000 0.000000 0.000000 -77.663048 12.343089 7.787870 4.583561 -7.897729 0.637214 1.899656 0.727244 0.756646 0.100937 -0.025648 -0.064949 0.000000 0.000000 0.000000 -0.158527 3.599291 1.697841 2.057565 2.254138 10.510699 -24.529082 -41.654571 -13.512848 0.000000 0.000000 0.000000 -3.703310 2.246983 0.193653 -2.071195 -17.040525 -5.434984 -0.866215 2.018782 -1.959894 62.716368 -12.553845 -34.021275 3.118394 -32.158778 8.672663 0.000000 0.000000 0.000000 -1.413057 1.377548 1.503118 0.085694 0.801046 14.107816 6.343313 2.436345 -5.731273 70.601794 34.030789 12.461091 -3.376466 16.681593 -1.799088 0.000000 0.000000 0.000000 
14.432475 21.622936 182.488739 0.000000 0.000000 0.000000 -70.300644 3.646644 1.523176 -67.391318 -27.551607 26.631618 92.378500 -16.580826 5.517450 19.244517 -9.494985 -28.221461 9.102024 -2.509396 3.839406 0.000000 0.000000 0.000000 -74.238972 10.671640 6.532996 -69.556645 4.500039 -25.349135 98.279005 11.139517 -6.911991 8.874103 2.079299 24.938143 28.395089 -7.982186 -30.213099 0.000000 0.000000 0.000000 -77.673970 12.199417 7.176449 4.717511 -7.748908 0.670244 2.447647 0.832562 0.854055 0.089557 -0.039742 -0.063763 0.000000 0.000000 0.000000 0.286771 3.670239 1.803112 3.517395 2.359381 10.097147 -26.597283 -43.595957 -14.932837 0.000000 0.000000 0.000000 -3.258731 2.313472 0.163948 -1.760870 -15.541117 -6.260311 -0.247768 1.019896 -2.054021 62.357469 -11.520119 -31.974636 4.515551 -33.021574 9.331462 0.000000 0.000000 0.000000 -0.887750 1.488213 1.631925 0.110926 0.811248 14.031098 5.909047 2.404683 -5.447985 67.966024 34.341556 13.867520 -3.720905 16.910753 -1.168792 0.000000 0.000000 0.000000 
14.715549 21.685528 182.207108 0.000000 0.000000 0.000000 -70.321913 3.932231 0.983452 -69.022511 -27.435326 25.389818 92.314269 -15.956739 5.495579 19.759432 -10.609889 -26.662574 9.080626 -2.435985 3.965604 0.000000 0.000000 0.000000 -74.077821 11.320341 6.220307 -67.255015 1.856922 -26.360234 95.706100 11.221728 -7.204601 7.647500 2.227721 25.685232 28.623091 -8.038337 -29.958163 0.000000 0.000000 0.000000 -77.386740 11.939297 6.341220 4.833133 -7.594329 0.818434 3.048549 0.921737 0.953906 0.071265 -0.023000 -0.069748 0.000000 0.000000 0.000000 0.801293 3.721057 1.892015 4.749183 2.396556 9.708177 -28.614106 -45.185943 -16.196986 0.000000 0.000000 0.000000 -2.734798 2.367629 0.112237 -1.389970 -13.747246 -7.015619 0.309447 -0.084655 -2.308352 61.984937 -10.627390 -29.711729 5.919604 -33.561992 9.918906 0.000000 0.000000 0.000000 -0.289262 1.598168 1.741564 0.040446 1.054052 13.814770 5.315187 2.200603 -5.261072 64.770554 34.565702 15.519616 -4.158390 17.288380 -0.446630 0.000000 0.000000 0.000000 
15.005389 21.755638 181.939346 0.000000 0.000000 0.000000 -70.244568 3.911044 0.197329 -70.869688 -27.205262 24.011397 92.121794 -15.274815 5.401682 20.403742 -11.710465 -25.065548 9.106273 -2.342962 4.071668 0.000000 0.000000 0.000000 -73.854255 11.540371 5.572491 -65.316887 -0.747741 -27.283455 92.904465 11.199448 -7.251792 7.095277 2.239711 25.733945 29.467813 -8.301948 -29.168388 0.000000 0.000000 0.000000 -76.854511 11.550886 5.372508 4.939528 -7.455122 1.071727 3.683529 0.984176 1.038253 0.072507 0.010382 -0.077786 0.000000 0.000000 0.000000 1.370825 3.753887 1.945214 5.663187 2.387727 9.273852 -30.381788 -46.396519 -17.230158 0.000000 0.000000 0.000000 -2.132480 2.404028 0.031698 -0.974500 -11.733664 -7.664178 0.812197 -1.046869 -2.509528 61.496619 -9.941456 -27.255595 7.254792 -33.551084 10.364349 0.000000 0.000000 0.000000 0.363418 1.700254 1.815515 -0.121249 1.432995 13.446371 4.633030 1.902278 -5.079919 61.173688 34.564497 17.484388 -4.640762 17.874199 0.295684 0.000000 0.000000 0.000000 
15.312331 21.771782 181.754501 0.000000 0.000000 0.000000 -70.010887 3.628137 -0.684342 -72.868461 -26.944420 22.584963 91.941374 -14.490368 5.202741 21.189784 -12.733827 -23.443217 9.208053 -2.217204 4.119982 0.000000 0.000000 0.000000 -73.565434 11.219901 4.632604 -63.992602 -3.185220 -28.067689 89.984286 11.087117 -7.141067 6.994734 2.248698 25.434223 30.156378 -8.659626 -28.269041 0.000000 0.000000 0.000000 -76.090889 11.048995 4.353477 5.065791 -7.351721 1.398039 4.336391 1.031448 1.089869 0.085591 0.052736 -0.092602 0.000000 0.000000 0.000000 1.997428 3.783311 1.948025 6.262491 2.351222 8.756419 -31.797683 -47.258038 -18.003047 0.000000 0.000000 0.000000 -1.475402 2.426998 -0.080281 -0.534267 -9.636117 -8.191746 1.327736 -1.798724 -2.472311 60.850627 -9.444570 -24.600103 8.409452 -32.894488 10.564224 0.000000 0.000000 0.000000 1.038382 1.793013 1.841793 -0.359687 1.876101 12.980578 3.849585 1.629422 -4.858615 57.414912 34.227932 19.721891 -5.117188 18.675581 1.017650 0.000000 0.000000 0.000000 
